<?xml version="1.0" encoding="UTF-8"?>
<!DOCTYPE svg PUBLIC "-//W3C//DTD SVG 1.1//EN" "http://www.w3.org/Graphics/SVG/1.1/DTD/svg11.dtd">
<!-- Creator: CorelDRAW -->
<svg xmlns="http://www.w3.org/2000/svg" xml:space="preserve" width="2048px" height="2048px" style="shape-rendering:geometricPrecision; text-rendering:geometricPrecision; image-rendering:optimizeQuality; fill-rule:evenodd; clip-rule:evenodd"
viewBox="0 0 2048 2048"
 xmlns:xlink="http://www.w3.org/1999/xlink">
 <defs>
  <style type="text/css">
   <![CDATA[
    .fil2 {fill:none}
    .fil3 {fill:#33691E}
    .fil6 {fill:#3E2723}
    .fil4 {fill:#689F38}
    .fil1 {fill:#F57C00}
    .fil0 {fill:#FFA726}
    .fil7 {fill:#6D4C41;fill-rule:nonzero}
    .fil8 {fill:#8D6E63;fill-rule:nonzero}
    .fil5 {fill:#E6EE9C;fill-rule:nonzero}
   ]]>
  </style>
   <clipPath id="id0">
    <path d="M1024 0c565.539,0 1024,458.461 1024,1024 0,565.539 -458.461,1024 -1024,1024 -565.539,0 -1024,-458.461 -1024,-1024 0,-565.539 458.461,-1024 1024,-1024z"/>
   </clipPath>
 </defs>
 <g id="Layer_x0020_1">
  <metadata id="CorelCorpID_0Corel-Layer"/>
  <path class="fil0" d="M1024 0c565.539,0 1024,458.461 1024,1024 0,565.539 -458.461,1024 -1024,1024 -565.539,0 -1024,-458.461 -1024,-1024 0,-565.539 458.461,-1024 1024,-1024z"/>
  <g style="clip-path:url(#id0)">
   <g id="_341213296">
    <g>
     <polygon id="_3384392401" class="fil1" points="1333.24,515.078 2469.12,1650.96 2470.26,1652.31 2471.33,1653.71 2472.34,1655.17 2473.27,1656.68 2474.14,1658.23 2474.93,1659.84 2475.64,1661.5 2476.28,1663.19 2476.83,1664.93 2477.3,1666.71 2477.68,1668.53 2477.97,1670.39 1342.09,534.504 1341.8,532.649 1341.42,530.832 1340.95,529.052 1340.4,527.312 1339.76,525.615 1339.05,523.96 1338.26,522.352 1337.39,520.793 1336.45,519.284 1335.45,517.828 1334.38,516.424 "/>
     <polygon id="_338438928" class="fil1" points="1342.09,534.504 2477.97,1670.39 2484.4,1719.51 1348.52,583.629 "/>
     <polygon id="_338440440" class="fil1" points="1500.09,615.403 2635.97,1751.29 2637.05,1752.67 1501.17,616.785 "/>
     <polygon id="_338440560" class="fil1" points="1501.17,616.785 2637.05,1752.67 2638.06,1754.1 2639.01,1755.58 2639.88,1757.1 2640.68,1758.67 2641.41,1760.27 2642.06,1761.91 2642.63,1763.59 2643.13,1765.29 2643.54,1767.03 2643.86,1768.79 2644.1,1770.58 2644.25,1772.38 2644.31,1774.21 2644.27,1776.05 2644.15,1777.9 2643.92,1779.77 1508.04,643.883 1508.26,642.019 1508.39,640.166 1508.42,638.326 1508.37,636.502 1508.22,634.695 1507.98,632.91 1507.65,631.147 1507.25,629.412 1506.75,627.704 1506.18,626.03 1505.53,624.388 1504.8,622.783 1504,621.218 1503.13,619.694 1502.18,618.217 "/>
     <polygon id="_338440608" class="fil1" points="1508.04,643.883 2643.92,1779.77 2623.82,1917.22 1487.94,781.339 "/>
     <polygon id="_338440680" class="fil1" points="1569.94,803.735 2705.82,1939.62 2707.65,1941.94 2709.36,1944.35 2710.97,1946.84 2712.45,1949.42 2713.81,1952.06 2715.04,1954.78 2716.14,1957.57 2717.11,1960.43 2717.94,1963.34 2718.63,1966.31 2719.17,1969.33 2719.56,1972.4 2719.8,1975.51 2719.88,1978.66 1584,842.781 1583.92,839.627 1583.68,836.514 1583.29,833.444 1582.75,830.424 1582.06,827.455 1581.23,824.544 1580.26,821.691 1579.16,818.903 1577.93,816.183 1576.57,813.533 1575.08,810.961 1573.48,808.468 1571.77,806.057 "/>
     <polygon id="_338440416" class="fil1" points="1584,842.781 2719.88,1978.66 2719.88,2095.06 1584,959.174 "/>
     <polygon id="_338440800" class="fil1" points="1584,959.174 2719.88,2095.06 2719.88,2169.6 1584,1033.71 "/>
     <polygon id="_338440200" class="fil1" points="1584,1033.71 2719.88,2169.6 2719.88,2170.11 1584,1034.22 "/>
     <polygon id="_338440368" class="fil1" points="1584,1034.22 2719.88,2170.11 2719.88,2216.45 1584,1080.57 "/>
     <polygon id="_338441448" class="fil1" points="1584,1080.57 2719.88,2216.45 2719.88,2386.49 1584,1250.61 "/>
     <polygon id="_338441040" class="fil1" points="1584,1250.61 2719.88,2386.49 2719.88,2432.83 1584,1296.95 "/>
     <polygon id="_338441256" class="fil1" points="1584,1296.95 2719.88,2432.83 2719.88,2433.34 1584,1297.46 "/>
     <polygon id="_338440968" class="fil1" points="1584,1297.46 2719.88,2433.34 2719.88,2462.16 1584,1326.28 "/>
     <polygon id="_338441472" class="fil1" points="1584,1326.28 2719.88,2462.16 2719.88,2624.28 1584,1488.4 "/>
     <polygon id="_338441136" class="fil1" points="1584,1488.4 2719.88,2624.28 2719.8,2627.43 2719.56,2630.55 2719.17,2633.61 2718.63,2636.64 2717.94,2639.6 2717.11,2642.52 2716.14,2645.37 2715.04,2648.16 2713.81,2650.88 2712.45,2653.53 2710.97,2656.1 2709.36,2658.59 2707.65,2661 2705.82,2663.32 2703.89,2665.56 2701.85,2667.69 2699.72,2669.73 2697.48,2671.66 2695.16,2673.49 2692.75,2675.2 2690.26,2676.8 2687.69,2678.29 2685.04,2679.65 2682.32,2680.88 2679.53,2681.98 2676.68,2682.95 2673.76,2683.78 2670.8,2684.47 2667.78,2685.01 2664.71,2685.4 2661.59,2685.64 2658.44,2685.72 1522.56,1549.84 1525.71,1549.76 1528.82,1549.52 1531.89,1549.13 1534.91,1548.59 1537.88,1547.9 1540.8,1547.07 1543.65,1546.1 1546.44,1545 1549.16,1543.76 1551.8,1542.4 1554.38,1540.92 1556.87,1539.32 1559.28,1537.61 1561.6,1535.78 1563.83,1533.84 1565.97,1531.81 1568.01,1529.67 1569.94,1527.44 1571.77,1525.12 1573.48,1522.71 1575.08,1520.22 1576.57,1517.64 1577.93,1514.99 1579.16,1512.27 1580.26,1509.49 1581.23,1506.63 1582.06,1503.72 1582.75,1500.75 1583.29,1497.73 1583.68,1494.66 1583.92,1491.55 "/>
     <polygon id="_338440992" class="fil1" points="1522.56,1549.84 2658.44,2685.72 1661.32,2685.72 525.442,1549.84 "/>
     <polygon id="_338442048" class="fil1" points="525.442,1549.84 1661.32,2685.72 1658.17,2685.64 1655.06,2685.4 1651.99,2685.01 1648.97,2684.47 1646,2683.78 1643.09,2682.95 1640.23,2681.98 1637.44,2680.88 1634.72,2679.65 1632.08,2678.29 1629.5,2676.8 1627.01,2675.2 1624.6,2673.49 1622.28,2671.66 486.396,1535.78 488.718,1537.61 491.129,1539.32 493.622,1540.92 496.194,1542.4 498.844,1543.76 501.564,1545 504.352,1546.1 507.205,1547.07 510.116,1547.9 513.085,1548.59 516.106,1549.13 519.175,1549.52 522.289,1549.76 "/>
    </g>
    <path id="_341213920" class="fil1" d="M766.673 498.548l268.533 39.267 265.912 -34.8012c9.97914,-1.30512 19.5756,1.58032 26.9918,7.28032 7.41615,5.69882 12.6744,14.2288 13.9807,24.2091l6.42875 49.1256 128.652 18.8126c9.95906,1.4563 18.4087,6.84095 23.9965,14.3433 5.5878,7.50119 8.32796,17.1378 6.87166,27.0981l-20.0988 137.456 34.617 0c33.8445,0 61.4422,27.5977 61.4422,61.4422l0 116.393 0 74.5394 0 0.511418 0 46.3441 0 170.039 0 46.3441 0 0.510237 0 28.813 0 162.122c0,33.8422 -27.5988,61.441 -61.4422,61.441l-997.116 0c-33.8445,0 -61.4422,-27.5965 -61.4422,-61.441l0 -645.616c0,-33.8469 27.5965,-61.4422 61.4422,-61.4422l51.0709 0 -18.8681 -144.174c-1.30512,-9.98032 1.57914,-19.5756 7.28032,-26.9918 5.7,-7.41615 14.2288,-12.6744 24.2091,-13.9795l128.796 -16.8555 7.29922 -49.9217c1.45748,-9.95906 6.84331,-18.4087 14.3445,-23.9953 7.50119,-5.5878 17.1378,-8.32914 27.0992,-6.87284z"/>
   </g>
  </g>
  <path class="fil2" d="M1024 0c565.539,0 1024,458.461 1024,1024 0,565.539 -458.461,1024 -1024,1024 -565.539,0 -1024,-458.461 -1024,-1024 0,-565.539 458.461,-1024 1024,-1024z"/>
  <path class="fil3" d="M766.672 498.548l710.5 103.893c9.95906,1.4563 18.4087,6.84213 23.9965,14.3433 5.5878,7.50119 8.32796,17.139 6.87166,27.0981l-51.2563 350.536c-1.4563,9.95906 -6.84213,18.4075 -14.3445,23.9953 -7.50119,5.58898 -17.139,8.32914 -27.0981,6.87284l-710.5 -103.893c-9.95906,-1.4563 -18.4075,-6.84095 -23.9953,-14.3433 -5.5878,-7.50237 -8.32914,-17.139 -6.87284,-27.0981l51.2575 -350.536c1.4563,-9.95906 6.84213,-18.4087 14.3433,-23.9953 7.50237,-5.5878 17.1378,-8.32914 27.0981,-6.87284z"/>
  <path class="fil4" d="M764.912 510.587c-6.42166,-0.938977 -12.8705,0.718111 -18.0709,4.59095 -5.19922,3.87284 -8.63386,9.57875 -9.57166,15.998l-51.2575 350.536c-0.938977,6.42048 0.71693,12.8705 4.59095,18.0709 3.87284,5.19922 9.57875,8.63386 15.9992,9.57284l710.499 103.892c6.42166,0.938977 12.8705,-0.71693 18.0709,-4.59095 5.2004,-3.87284 8.63386,-9.57757 9.57284,-15.9992l51.2563 -350.535c0.938977,-6.42048 -0.71693,-12.8705 -4.58977,-18.0697 -3.87402,-5.2004 -9.57875,-8.63386 -16.0004,-9.57284l-710.499 -103.893z"/>
  <path class="fil3" d="M755.958 518.351l80.2961 11.7413c0.257481,1.59449 0.465355,3.20551 0.618898,4.83189 0.531496,5.61024 0.379134,11.5606 -0.529134,17.7732 -2.95158,20.1874 -13.8047,37.2662 -28.9666,48.5587 -15.1583,11.2913 -34.6311,16.8012 -54.8185,13.8484 -5.29489,-0.773623 -10.1032,-1.95709 -14.4071,-3.49961l-0.589371 -0.21378 13.0205 -89.0375c0.184252,-1.26614 0.890552,-2.3563 1.87559,-3.09095 0.98504,-0.733465 2.23229,-1.09724 3.49961,-0.911812z"/>
  <path class="fil3" d="M699.677 903.236l80.2973 11.7413c0.702756,-1.45394 1.36299,-2.93858 1.97599,-4.45158 2.11536,-5.22284 3.67323,-10.9689 4.58268,-17.1815 2.95158,-20.1874 -2.55709,-39.6579 -13.8508,-54.8197 -11.2902,-15.1583 -28.3701,-26.0126 -48.5575,-28.9642 -5.29489,-0.774804 -10.2413,-1.01811 -14.8063,-0.772442l-0.625985 0.0366142 -13.0193 89.0363c-0.185433,1.26732 0.179528,2.51457 0.912993,3.49961 0.733465,0.98504 1.8248,1.69016 3.09095,1.87559z"/>
  <path class="fil3" d="M1425.49 1009.37l-80.2961 -11.7413c-0.257481,-1.59331 -0.464174,-3.20551 -0.618898,-4.83189 -0.531496,-5.60906 -0.379134,-11.5595 0.529134,-17.7732 2.95158,-20.1874 13.8047,-37.2662 28.9666,-48.5587 15.1583,-11.2902 34.6311,-16.8 54.8185,-13.8484 5.29489,0.774804 10.1032,1.95709 14.4071,3.49961l0.589371 0.21378 -13.0193 89.0375c-0.185433,1.26614 -0.891733,2.35748 -1.87677,3.09095 -0.98504,0.734646 -2.23229,1.09724 -3.49961,0.911812z"/>
  <path class="fil3" d="M1481.77 624.482l-80.2973 -11.7413c-0.702756,1.45394 -1.36299,2.93858 -1.97599,4.45158 -2.11417,5.22402 -3.67323,10.9689 -4.5815,17.1815 -2.95276,20.1874 2.55591,39.6591 13.8496,54.8197 11.2902,15.1583 28.3701,26.0138 48.5575,28.9654 5.29489,0.773623 10.2413,1.01693 14.8063,0.77126l0.625985 -0.0366142 13.0193 -89.0363c0.185433,-1.26614 -0.178347,-2.51339 -0.912993,-3.49843 -0.733465,-0.986221 -1.82362,-1.69134 -3.09095,-1.87677z"/>
  <path class="fil3" d="M1116.61 586.839c48.3437,7.0689 89.2489,33.0662 116.3,69.3827 27.0496,36.3166 40.2473,82.9524 33.1784,131.297 -7.07008,48.3437 -33.0673,89.2489 -69.3839,116.3 -36.3166,27.0496 -82.9524,40.2473 -131.296,33.1784 -48.3449,-7.07008 -89.2489,-33.0673 -116.3,-69.3839 -27.0508,-36.3166 -40.2485,-82.9524 -33.1784,-131.296 7.0689,-48.3449 33.0662,-89.2489 69.3827,-116.3 36.3166,-27.0508 82.9524,-40.2485 131.297,-33.1784z"/>
  <path class="fil5" d="M1074.06 868.268l3.09449 -21.1571c-10.4055,-2.87481 -18.6508,-6.49961 -24.776,-10.8815 -6.1252,-4.38071 -11.0563,-10.7599 -14.7638,-19.0524 -3.70276,-8.33268 -5.1567,-18.0177 -4.31693,-29.0894l21.8646 -0.903544c-0.0153543,11.6032 1.65473,20.3764 5.04922,26.3256 4.8378,8.41654 11.3728,13.637 19.5603,15.6957l9.85158 -67.3666c-8.47205,-2.91969 -16.8508,-7.58977 -25.2189,-14.0209 -6.19252,-4.75985 -10.6087,-10.7362 -13.2874,-17.9351 -2.67874,-7.19882 -3.3815,-15.0106 -2.1437,-23.4815 2.20158,-15.0543 9.32599,-26.4792 21.3272,-34.2378 8.06812,-5.25827 19.2236,-7.52127 33.4406,-6.87875l1.47992 -10.1161 12.4854 1.82599 -1.47874 10.1161c12.1134,2.96103 21.3815,8.0067 27.6874,15.0791 8.15197,9.02481 12.1488,20.3929 12.0744,34.0784l-22.3606 0.0921261c-0.0295276,-8.49213 -1.70551,-15.2575 -5.03386,-20.2547 -3.28937,-4.99134 -8.28072,-8.71418 -14.9799,-11.1284l-8.92324 61.0217c10.2449,4.24607 17.0055,7.36772 20.2417,9.35788 6.16063,3.85276 11.0244,8.17205 14.5547,12.913 3.56457,4.78465 6.05434,10.1929 7.42796,16.2165 1.40906,6.06969 1.62992,12.4169 0.655512,19.0819 -2.14961,14.6929 -8.6315,26.211 -19.3772,34.6441 -10.7528,8.47442 -23.6008,11.9268 -38.5193,10.4835l-3.12992 21.398 -12.4854 -1.82599zm27.104 -185.358c-8.41182,0.0401575 -15.3969,2.3811 -20.915,7.02875 -5.51811,4.64646 -8.80867,10.6028 -9.87757,17.9102 -1.05,7.18583 0.0708662,13.5413 3.41575,18.9921 3.3437,5.45079 9.60001,10.3429 18.8126,14.6421l8.56418 -58.5733zm-8.90552 148.12c8.37638,0.200788 15.6839,-2.37992 21.9555,-7.69607 6.27166,-5.31615 10.0713,-12.5102 11.3917,-21.5433 1.12205,-7.66772 0.0992127,-14.1319 -2.9941,-19.3417 -3.13229,-5.21457 -10.1102,-10.4988 -20.9315,-15.8539l-9.42166 64.4351z"/>
  <path class="fil3" d="M589.134 596.193l711.984 -93.1772c9.97914,-1.3063 19.5744,1.57914 26.9918,7.27914 7.41615,5.69882 12.6744,14.2288 13.9807,24.2091l45.9709 351.268c1.30512,9.97914 -1.58032,19.5744 -7.28032,26.9918 -5.7,7.41733 -14.2299,12.6744 -24.2091,13.9807l-711.984 93.1784c-9.97914,1.30512 -19.5744,-1.58032 -26.9918,-7.28032 -7.41615,-5.7 -12.6744,-14.2299 -13.9807,-24.2091l-45.9709 -351.268c-1.3063,-9.98032 1.58032,-19.5756 7.28032,-26.9918 5.7,-7.41615 14.2288,-12.6744 24.2091,-13.9807z"/>
  <path class="fil4" d="M590.713 608.258c-6.43465,0.842127 -12.1902,4.18937 -16.1421,9.33072 -3.95079,5.14016 -5.70355,11.5642 -4.8626,17.9977l45.9721 351.268c0.840946,6.43465 4.18937,12.1902 9.32953,16.141 5.14134,3.95197 11.5654,5.70473 18,4.8626l711.983 -93.1772c6.43465,-0.842127 12.1902,-4.18937 16.1421,-9.33072 3.95079,-5.14134 5.70355,-11.5654 4.8626,-18l-45.9721 -351.267c-0.840946,-6.43347 -4.18819,-12.1902 -9.32953,-16.141 -5.14134,-3.95079 -11.5654,-5.70473 -18,-4.8626l-711.983 93.1784z"/>
  <path class="fil3" d="M584.207 618.162l80.465 -10.5307c0.681497,1.46457 1.31811,2.95866 1.90866,4.48229 2.03622,5.25355 3.50788,11.0221 4.32284,17.2477 2.64803,20.2299 -3.15355,39.6154 -14.674,54.6048 -11.5181,14.9858 -28.7599,25.5827 -48.9886,28.2295 -5.30552,0.694489 -10.2555,0.863386 -14.8158,0.549213l-0.625985 -0.046063 -11.6764 -89.2229c-0.166536,-1.2685 0.217323,-2.51103 0.964961,-3.48425 0.748819,-0.97441 1.84961,-1.66299 3.11929,-1.82953z"/>
  <path class="fil3" d="M634.682 1003.85l80.465 -10.5307c0.281103,-1.58977 0.512599,-3.19843 0.692127,-4.82126 0.615355,-5.60197 0.552756,-11.5536 -0.262205,-17.7803 -2.64685,-20.2288 -13.2425,-37.4693 -28.2319,-48.9886 -14.9858,-11.5181 -34.3736,-17.3209 -54.6036,-14.6728 -5.30552,0.694489 -10.1315,1.80473 -14.4579,3.28229l-0.591733 0.204331 11.6764 89.2229c0.165354,1.26969 0.855119,2.37047 1.82835,3.11929 0.97441,0.748819 2.21575,1.1315 3.48544,0.964961z"/>
  <path class="fil3" d="M1362.01 908.665l-80.4638 10.5307c-0.681497,-1.46457 -1.31929,-2.95866 -1.90984,-4.48229 -2.03622,-5.25355 -3.5067,-11.0209 -4.32166,-17.2477 -2.64803,-20.2288 3.15355,-39.6154 14.674,-54.6048 11.5169,-14.9858 28.7587,-25.5827 48.9886,-28.2295 5.30552,-0.694489 10.2543,-0.863386 14.8158,-0.549213l0.624804 0.046063 11.6776 89.2229c0.165354,1.26969 -0.217323,2.51103 -0.964961,3.48425 -0.748819,0.97441 -1.85079,1.66299 -3.12047,1.82953z"/>
  <path class="fil3" d="M1311.53 522.976l-80.4638 10.5307c-0.282284,1.58977 -0.512599,3.19843 -0.690945,4.82126 -0.616536,5.60197 -0.553937,11.5536 0.261024,17.7803 2.64685,20.2288 13.2413,37.4693 28.2307,48.9898 14.987,11.5169 34.3748,17.3197 54.6036,14.6728 5.3067,-0.694489 10.1327,-1.80591 14.4591,-3.28347l0.591733 -0.204331 -11.6764 -89.2229c-0.166536,-1.26969 -0.855119,-2.37047 -1.82953,-3.11929 -0.97441,-0.748819 -2.21575,-1.1315 -3.48544,-0.964961z"/>
  <path class="fil3" d="M949.893 586.023c48.4453,-6.34016 94.8768,7.55788 130.782,35.1532 35.9044,27.5941 61.2827,68.8855 67.6229,117.332 6.34016,48.4453 -7.55788,94.8768 -35.152,130.781 -27.5953,35.9055 -68.8867,61.2839 -117.332,67.6241 -48.4453,6.34016 -94.8768,-7.55788 -130.782,-35.1532 -35.9044,-27.5941 -61.2827,-68.8855 -67.6229,-117.331 -6.34016,-48.4465 7.55788,-94.878 35.152,-130.782 27.5953,-35.9055 68.8867,-61.2839 117.332,-67.6241z"/>
  <path class="fil5" d="M985.459 868.419l-2.77441 -21.2008c-10.7953,0.0614174 -19.715,-1.18465 -26.8004,-3.73583 -7.08544,-2.55118 -13.5662,-7.35001 -19.389,-14.3209 -5.82756,-7.01221 -9.85985,-15.9366 -12.0614,-26.8205l20.7957 -6.81378c3.13937,11.1697 7.1315,19.1587 12.0154,23.9622 6.94371,6.78426 14.6528,10.0311 23.0906,9.78544l-8.83465 -67.5071c-8.94568,-0.506693 -18.2788,-2.72244 -28.0795,-6.63662 -7.25434,-2.89725 -13.128,-7.44804 -17.6634,-13.6476 -4.53544,-6.19843 -7.33465,-13.5248 -8.44607,-22.0146 -1.9748,-15.0862 1.77638,-28.017 11.2146,-38.7449 6.33544,-7.25434 16.4563,-12.4654 30.313,-15.711l-1.32756 -10.1386 12.5114 -1.63701 1.32756 10.1386c12.463,-0.445276 22.754,1.89095 30.7441,6.98386 10.2992,6.46772 17.2358,16.3217 20.8854,29.511l-21.4949 6.16772c-2.33622,-8.16379 -5.78859,-14.2181 -10.3512,-18.1228 -4.52126,-3.90945 -10.337,-6.13465 -17.4414,-6.6378l8.00316 61.1504c11.0138,1.30158 18.3685,2.46614 22.0229,3.50197 6.97678,2.03268 12.8315,4.86733 17.5181,8.46969 4.7315,3.63544 8.59725,8.16379 11.5571,13.5862 3.00591,5.45788 4.94292,11.5063 5.81693,18.1854 1.92756,14.7236 -1.17874,27.5693 -9.22796,38.6079 -8.04331,11.0776 -19.4693,17.8925 -34.2189,20.5595l2.8063 21.4429 -12.5114 1.63701zm-24.3083 -185.745c-8.08465,2.32677 -14.1709,6.47835 -18.2173,12.4512 -4.04764,5.97166 -5.59371,12.5976 -4.63583,19.9205 0.94252,7.20119 3.74882,13.0122 8.44961,17.3492 4.69961,4.33583 12.0508,7.34292 22.0843,8.97638l-7.68071 -58.6973zm31.6973 144.964c8.11536,-2.08465 14.4461,-6.55512 19.0358,-13.376 4.59095,-6.82087 6.29174,-14.7768 5.10709,-23.8288 -1.0063,-7.68426 -3.74764,-13.6276 -8.14016,-17.7992 -4.43268,-4.16693 -12.5835,-7.35591 -24.4536,-9.56694l8.45079 64.5709z"/>
  <rect class="fil6" x="1117.33" y="959.174" width="466.667" height="367.101"/>
  <path class="fil7" d="M525.442 781.338l997.116 0c33.8445,0 61.4422,27.5977 61.4422,61.4434l0 190.932 0 0.511418 -304.961 0c-12.7642,0 -24.3555,5.20867 -32.7461,13.5969 -8.3882,8.39056 -13.5969,19.9807 -13.5969,32.7461l0 170.04c0,12.7665 5.20867,24.3567 13.5969,32.7461 8.38938,8.38938 19.9807,13.598 32.7461,13.598l304.961 0 0 0.510237 0 190.935c0,33.8422 -27.5988,61.4422 -61.4422,61.4422l-997.116 0c-33.8445,0 -61.4422,-27.5977 -61.4422,-61.4422l0 -645.616c0,-33.8457 27.5965,-61.4434 61.4422,-61.4434z"/>
  <path class="fil8" d="M1580.33 1076.9l-315.071 0c-0.986221,0 -1.89921,0.419292 -2.57362,1.0937 -0.67441,0.673229 -1.09252,1.5874 -1.09252,2.57244l0 170.04c0,0.98504 0.418111,1.89921 1.09252,2.57362 0.67441,0.67441 1.5874,1.0937 2.57362,1.0937l315.071 0c0.98504,0 1.89921,-0.419292 2.57244,-1.0937 0.675591,-0.675591 1.0937,-1.58858 1.0937,-2.57362l0 -170.04c0,-0.983859 -0.418111,-1.89803 -1.0937,-2.57126 -0.673229,-0.675591 -1.5874,-1.09488 -2.57244,-1.09488zm-200.616 34.6583c14.8748,0 28.3866,6.07441 38.1697,15.8575 9.78544,9.78426 15.8587,23.2961 15.8587,38.1709 0,14.8748 -6.07323,28.3855 -15.8587,38.1697 -9.78308,9.78426 -23.2949,15.8575 -38.1697,15.8575 -14.8748,0 -28.3855,-6.07323 -38.1697,-15.8575 -9.78426,-9.78426 -15.8575,-23.2949 -15.8575,-38.1697 0,-14.8748 6.07323,-28.3866 15.8575,-38.1709 9.78426,-9.78308 23.2949,-15.8575 38.1697,-15.8575z"/>
 </g>
</svg>
